<svg height="409pt" viewBox="-13 0 409 409.59659" width="409pt" xmlns="http://www.w3.org/2000/svg"><path d="m154.796875 157.011719h-41.859375v-34.132813h-34.132812v34.132813h-38.445313c-16.472656 0-33.234375 11.441406-33.234375 25.5625v22.226562h177.492188v-25.152343c0-12.503907-15.234376-22.636719-29.820313-22.636719zm0 0" fill="#bfad88"/><path d="m154.796875 157.011719v-6.824219h-35.03125v-27.308594c0-1.800781-.730469-3.554687-2-4.828125-1.269531-1.269531-3.027344-1.996093-4.824219-1.996093h-34.136718c-1.796876 0-3.554688.726562-4.828126 1.996093-1.269531 1.273438-2 3.027344-2 4.828125v27.304688l-31.617187.003906c-9.820313.027344-19.359375 3.308594-26.855469 8.824219-3.742187 2.773437-6.988281 6.140625-9.363281 10.105469-2.371094 3.953124-3.847656 8.558593-3.84375 13.457031v22.226562c0 1.820313.710937 3.535157 2 4.824219 1.292969 1.292969 3.003906 2 4.828125 2h177.492188c1.824218 0 3.539062-.707031 4.828124-2 1.289063-1.289062 2-3.003906 2-4.824219v-25.152343c.003907-4.53125-1.402343-8.773438-3.613281-12.375-3.335937-5.417969-8.367187-9.5625-14.101562-12.484376-5.75-2.902343-12.273438-4.59375-18.933594-4.601562v13.648438c5.714844-.03125 11.976563 2.097656 16.367187 5.328124 2.203126 1.597657 3.925782 3.433594 5.023438 5.230469 1.101562 1.816407 1.597656 3.527344 1.605469 5.25v18.324219h-163.839844v-15.394531c.003906-2.167969.621094-4.285157 1.90625-6.453125 1.910156-3.230469 5.441406-6.410156 9.867187-8.675782 4.410157-2.277343 9.640626-3.617187 14.632813-3.609374h38.445313c1.824218 0 3.535156-.707032 4.828124-1.996094 1.289063-1.289063 2-3.003906 2-4.828125v-27.3125h20.480469v27.3125c0 1.824219.707031 3.539062 2 4.828125 1.289063 1.289062 3.003907 1.996094 4.824219 1.996094h41.859375zm0 0" fill="#54596e"/><path d="m157.3125 98.988281 3.414062-41.667969c0-27.886718-21.214843-50.492187-47.375-50.492187h-34.960937c-26.160156 0-47.371094 22.605469-47.371094 50.492187l3.414063 41.667969" fill="#fff35f"/><path d="m164.117188 99.542969 3.414062-41.667969.019531-.554688c0-15.6875-5.96875-29.984374-15.722656-40.375-9.738281-10.398437-23.398437-16.9531245-38.476563-16.945312h-34.960937c-15.074219-.0078125-28.738281 6.546875-38.472656 16.945312-9.757813 10.390626-15.726563 24.6875-15.726563 40.375l.023438.554688 3.414062 41.667969c.304688 3.757812 3.601563 6.554687 7.359375 6.246093 3.757813-.308593 6.554688-3.601562 6.246094-7.359374l-3.410156-41.667969-6.804688.558593h6.824219c0-12.203124 4.636719-23.152343 12.03125-31.035156 7.410156-7.878906 17.433594-12.628906 28.515625-12.636718h34.960937c11.082032.007812 21.105469 4.757812 28.519532 12.636718 7.390625 7.882813 12.027344 18.832032 12.027344 31.035156h6.828124l-6.804687-.558593-3.414063 41.664062c-.308593 3.757813 2.484376 7.054688 6.242188 7.363281 3.761719.3125 7.058594-2.484374 7.367188-6.242187zm0 0" fill="#54596e"/><path d="m73.238281 67.878906c-33.933593 0-38.804687-29.585937-38.804687 3.308594v27.511719c0 14.675781 6.976562 33.921875 18.851562 48.082031 8.996094 10.71875 25.300782 17.058594 42.585938 17.058594 17.289062 0 33.59375-6.339844 42.585937-17.058594 11.875-14.160156 18.855469-33.40625 18.855469-48.082031v-27.511719c0-32.894531-50.148438-3.308594-84.074219-3.308594zm0 0" fill="#ffd578"/><path d="m73.238281 67.878906v-6.828125c-9.621093-.023437-16.21875-2.609375-21.292969-5.300781-2.539062-1.359375-4.640624-2.753906-6.640624-3.992188-1.011719-.621093-1.988282-1.210937-3.15625-1.761718-1.171876-.519532-2.554688-1.132813-4.75-1.167969-1.195313-.007813-2.65625.269531-3.957032.957031-1.140625.59375-2.085937 1.4375-2.753906 2.28125-1.175781 1.5-1.65625 2.882813-2.023438 4.175782-.515624 1.953124-.71875 3.882812-.871093 6.285156-.136719 2.386718-.1875 5.207031-.1875 8.660156v27.511719c.011719 8.410156 1.949219 17.589843 5.425781 26.675781 3.488281 9.078125 8.535156 18.042969 15.023438 25.789062 5.390624 6.414063 12.671874 11.234376 20.894531 14.507813 8.230469 3.269531 17.445312 4.988281 26.921875 4.992187 9.476562-.003906 18.695312-1.722656 26.925781-4.992187 8.21875-3.273437 15.503906-8.09375 20.890625-14.503906 6.492188-7.75 11.535156-16.714844 15.023438-25.792969 3.476562-9.085938 5.414062-18.265625 5.425781-26.675781v-27.511719c0-3.554688-.472657-6.808594-1.585938-9.785156-1.613281-4.476563-4.988281-8.121094-8.9375-10.035156-3.945312-1.960938-8.167969-2.527344-12.476562-2.539063-10.304688.054687-21.988281 3.304687-34.046875 6.320313-11.976563 3.0625-24.199219 5.9375-33.851563 5.90625v13.648437c12.15625-.03125 25.085938-3.269531 37.210938-6.320313 12.042969-3.097656 23.40625-5.964843 30.6875-5.90625 2.003906 0 3.65625.203126 4.855469.535157 1.835937.539062 2.515624 1.085937 3.15625 1.960937.621093.886719 1.335937 2.695313 1.339843 6.210938v27.515625c.011719 6.257812-1.539062 14.039062-4.523437 21.785156-2.96875 7.753906-7.351563 15.492187-12.734375 21.90625-3.605469 4.308594-8.972657 8.015625-15.472657 10.589844-6.492187 2.585937-14.078124 4.035156-21.882812 4.03125-7.808594.003906-15.390625-1.449219-21.882812-4.03125-6.503907-2.574219-11.871094-6.28125-15.476563-10.589844-5.382813-6.414063-9.761719-14.152344-12.734375-21.90625-2.984375-7.742187-4.535156-15.523437-4.523438-21.785156v-27.511719c-.015624-5.730469.195313-9.484375.492188-10.925781l.117188-.519531-3.40625-1.207032 2.355468 2.625c.882813-.820312 1.039063-1.417968 1.050782-1.417968l-3.40625-1.207032 2.355468 2.625-3.414062-3.804687v5.125c.910156.0625 2.5625-.476563 3.414062-1.320313l-3.414062-3.804687v5.128906-3.730469l-1.039063 3.597656 1.039063.128907v-3.726563l-1.039063 3.597656.335938-1.171874-.4375 1.136718.101562.035156.335938-1.171874-.4375 1.136718c.0625-.019531 1.550781.820313 3.453125 2.046875 5.863281 3.734375 16.910156 10.40625 33.523437 10.339844zm0 0" fill="#54596e"/><path d="m340.527344 402.773438h-161.628906c-19.464844 0-35.238282-15.773438-35.238282-35.238282v-134.320312c0-19.464844 15.773438-35.238282 35.238282-35.238282h161.628906c19.464844 0 35.238281 15.773438 35.238281 35.238282v134.320312c0 19.464844-15.773437 35.238282-35.238281 35.238282zm0 0" fill="#999"/><path d="m340.527344 402.773438v-6.828126h-161.628906c-7.871094-.003906-14.929688-3.167968-20.089844-8.320312-5.15625-5.160156-8.320313-12.222656-8.320313-20.089844v-134.320312c0-7.875 3.167969-14.933594 8.320313-20.09375 5.160156-5.152344 12.21875-8.316406 20.089844-8.324219h161.628906c7.871094.007813 14.929687 3.171875 20.089844 8.324219 5.152343 5.160156 8.316406 12.21875 8.320312 20.09375v134.320312c-.003906 7.867188-3.167969 14.929688-8.320312 20.089844-5.160157 5.152344-12.21875 8.316406-20.089844 8.320312v13.652344c23.238281-.003906 42.0625-18.828125 42.0625-42.0625v-134.320312c0-23.238282-18.824219-42.066406-42.0625-42.066406h-161.628906c-23.238282 0-42.0625 18.828124-42.066407 42.066406v134.320312c.003907 23.234375 18.828125 42.058594 42.066407 42.0625h161.628906zm0 0" fill="#54596e"/><path d="m340.527344 375.464844h-161.628906c-19.464844 0-35.238282-15.769532-35.238282-35.238282v-134.320312c0-19.464844 15.773438-35.238281 35.238282-35.238281h161.628906c19.464844 0 35.238281 15.773437 35.238281 35.238281v134.320312c0 19.46875-15.773437 35.238282-35.238281 35.238282zm0 0" fill="#dfdfdf"/><g fill="#54596e"><path d="m340.527344 375.464844v-6.824219h-161.628906c-7.871094-.007813-14.929688-3.167969-20.089844-8.324219-5.15625-5.160156-8.320313-12.21875-8.320313-20.089844v-134.320312c0-7.871094 3.167969-14.933594 8.320313-20.089844 5.160156-5.15625 12.21875-8.316406 20.089844-8.324218h161.628906c7.871094.007812 14.929687 3.167968 20.089844 8.324218 5.152343 5.15625 8.316406 12.21875 8.320312 20.089844v134.320312c-.003906 7.871094-3.167969 14.929688-8.320312 20.089844-5.160157 5.15625-12.21875 8.316406-20.089844 8.324219v13.648437c23.238281-.003906 42.0625-18.824218 42.0625-42.0625v-134.320312c0-23.238281-18.824219-42.066406-42.0625-42.066406h-161.628906c-23.238282 0-42.0625 18.828125-42.066407 42.066406v134.320312c.003907 23.238282 18.828125 42.0625 42.066407 42.0625h161.628906zm0 0"/><path d="m191.445312 211.625v40.960938h13.652344v-20.480469h40.960938v95.574219h-13.652344v13.652343h54.613281v-13.652343h-13.65625v-95.574219h40.960938v20.480469h13.652343v-40.960938zm0 0"/></g></svg>