<svg height="512" viewBox="0 0 128 128" width="512" xmlns="http://www.w3.org/2000/svg"><path d="m121.851 60.506h-3.081a23.2 23.2 0 0 0 -2.8-6.752l2.182-2.181a2.606 2.606 0 0 0 0-3.687l-4.079-4.08a2.669 2.669 0 0 0 -3.688 0l-2.185 2.181a23.178 23.178 0 0 0 -6.752-2.8v-3.087a2.611 2.611 0 0 0 -2.606-2.6h-1.884v-16.174a5.006 5.006 0 0 0 -5-5h-22.123l-4.707-4.707a1 1 0 0 0 -1.415 1.414l3.293 3.293h-27.406a5.006 5.006 0 0 0 -5 5v8.8h-20.058a7.008 7.008 0 0 0 -7 7v7.742a7.006 7.006 0 0 0 6.1 6.935v3.388a7.006 7.006 0 0 0 -6.1 6.935v7.742a7.006 7.006 0 0 0 6.1 6.935v3.388a7.006 7.006 0 0 0 -6.1 6.935v7.742a7.008 7.008 0 0 0 7 7h20.058v8.8a5.006 5.006 0 0 0 5 5h24.4l4.707 4.707a1 1 0 1 0 1.415-1.414l-3.293-3.293h25.129a5.006 5.006 0 0 0 5-5v-16.168h1.884a2.61 2.61 0 0 0 2.608-2.607v-3.08a23.219 23.219 0 0 0 6.752-2.8l2.181 2.182a2.672 2.672 0 0 0 3.687 0l4.08-4.08a2.606 2.606 0 0 0 0-3.687l-2.182-2.182a23.2 23.2 0 0 0 2.8-6.752h3.081a2.609 2.609 0 0 0 2.607-2.607v-5.77a2.609 2.609 0 0 0 -2.605-2.611zm-25.893-6.655a12.148 12.148 0 1 1 -12.148 12.149 12.161 12.161 0 0 1 12.148-12.149zm-1 56.822a3 3 0 0 1 -3 3h-25.123l3.293-3.293a1 1 0 0 0 -1.415-1.414l-4.707 4.707h-24.406a3 3 0 0 1 -3-3v-8.8h20.064a7.008 7.008 0 0 0 7-7v-7.746a7.006 7.006 0 0 0 -6.1-6.935v-3.392a7.006 7.006 0 0 0 6.1-6.935v-7.738a7.006 7.006 0 0 0 -6.1-6.935v-3.392a7.006 7.006 0 0 0 6.1-6.935v-7.738a7.008 7.008 0 0 0 -7-7h-20.064v-8.8a3 3 0 0 1 3-3h27.4l-3.293 3.293a1 1 0 0 0 1.415 1.414l4.707-4.707h22.129a3 3 0 0 1 3 3v16.173h-1.885a2.611 2.611 0 0 0 -2.608 2.6v3.081a23.16 23.16 0 0 0 -6.751 2.8l-2.182-2.181a2.669 2.669 0 0 0 -3.687 0l-4.08 4.079a2.609 2.609 0 0 0 0 3.687l2.182 2.182a23.2 23.2 0 0 0 -2.8 6.752h-3.083a2.609 2.609 0 0 0 -2.606 2.607v5.77a2.609 2.609 0 0 0 2.606 2.607h3.081a23.2 23.2 0 0 0 2.8 6.752l-2.182 2.181a2.609 2.609 0 0 0 0 3.687l4.08 4.081a2.612 2.612 0 0 0 3.687 0l2.182-2.182a23.213 23.213 0 0 0 6.751 2.8v3.08a2.61 2.61 0 0 0 2.61 2.617h1.885z" fill="#e6e7e8"/><path d="m119.458 64.883v-5.77a1.607 1.607 0 0 0 -1.607-1.607h-3.883a22.346 22.346 0 0 0 -3.274-7.891l2.749-2.75a1.605 1.605 0 0 0 0-2.272l-4.08-4.08a1.605 1.605 0 0 0 -2.272 0l-2.75 2.749a22.328 22.328 0 0 0 -7.891-3.274v-3.888a1.608 1.608 0 0 0 -1.607-1.6h-5.77a1.607 1.607 0 0 0 -1.607 1.6v3.883a22.333 22.333 0 0 0 -7.892 3.274l-2.749-2.749a1.607 1.607 0 0 0 -2.273 0l-4.08 4.08a1.607 1.607 0 0 0 0 2.272l2.75 2.75a22.328 22.328 0 0 0 -3.274 7.891h-3.883a1.606 1.606 0 0 0 -1.607 1.607v5.77a1.606 1.606 0 0 0 1.607 1.607h3.883a22.328 22.328 0 0 0 3.274 7.891l-2.75 2.75a1.607 1.607 0 0 0 0 2.272l4.08 4.081a1.608 1.608 0 0 0 2.273 0l2.749-2.75a22.333 22.333 0 0 0 7.892 3.274v3.883a1.606 1.606 0 0 0 1.607 1.614h5.77a1.607 1.607 0 0 0 1.607-1.607v-3.885a22.328 22.328 0 0 0 7.891-3.274l2.75 2.75a1.607 1.607 0 0 0 2.272 0l4.08-4.081a1.605 1.605 0 0 0 0-2.272l-2.749-2.75a22.328 22.328 0 0 0 3.274-7.891h3.883a1.607 1.607 0 0 0 1.607-1.607zm-27.5 10.262a13.147 13.147 0 1 1 13.147-13.145 13.148 13.148 0 0 1 -13.147 13.145z" fill="#fa759e"/><path d="m10.638 46.869h41.931v30.258h-41.931z" fill="#0089ef"/><rect fill="#6dc9f7" height="19.742" rx="6" width="54.121" x="4.542" y="27.127"/><g fill="#fff"><path d="m52.664 27.127h-42.122a6 6 0 0 0 -6 6v3a6 6 0 0 1 6-6h42.122a6 6 0 0 1 6 6v-3a6 6 0 0 0 -6-6z"/><rect height="4.667" rx="2" width="19.801" x="10.638" y="34.665"/><circle cx="38.124" cy="36.998" r="2"/><circle cx="44.346" cy="36.998" r="2"/><circle cx="50.568" cy="36.998" r="2"/></g><rect fill="#6dc9f7" height="19.742" rx="6" width="54.121" x="4.542" y="52.127"/><rect fill="#fff" height="4.667" rx="2" width="19.801" x="10.638" y="59.665"/><circle cx="38.124" cy="61.998" fill="#fff" r="2"/><circle cx="44.346" cy="61.998" fill="#fff" r="2"/><circle cx="50.568" cy="61.998" fill="#fff" r="2"/><rect fill="#6dc9f7" height="19.742" rx="6" width="54.121" x="4.542" y="77.127"/><rect fill="#fff" height="4.667" rx="2" width="19.801" x="10.638" y="84.665"/><circle cx="38.124" cy="86.998" fill="#fff" r="2"/><circle cx="44.346" cy="86.998" fill="#fff" r="2"/><circle cx="50.568" cy="86.998" fill="#fff" r="2"/><path d="m91.958 47.851a14.147 14.147 0 1 0 14.147 14.149 14.163 14.163 0 0 0 -14.147-14.149zm0 26.294a12.147 12.147 0 1 1 12.147-12.145 12.161 12.161 0 0 1 -12.147 12.145z" fill="#3a2c60"/><path d="m117.85 56.506h-3.08a23.189 23.189 0 0 0 -2.8-6.752l2.181-2.181a2.606 2.606 0 0 0 0-3.687l-4.08-4.081a2.669 2.669 0 0 0 -3.686 0l-2.185 2.182a23.213 23.213 0 0 0 -6.751-2.8v-3.087a2.611 2.611 0 0 0 -2.606-2.6h-1.885v-16.173a5.006 5.006 0 0 0 -5-5h-22.123l-4.708-4.707a1 1 0 1 0 -1.414 1.414l3.293 3.293h-27.406a5.006 5.006 0 0 0 -5 5v8.8h-20.058a7.008 7.008 0 0 0 -7 7v7.742a7.006 7.006 0 0 0 6.1 6.935v3.389a7.006 7.006 0 0 0 -6.1 6.934v7.742a7.006 7.006 0 0 0 6.1 6.935v3.389a7.006 7.006 0 0 0 -6.1 6.934v7.742a7.008 7.008 0 0 0 7 7h20.058v8.8a5.006 5.006 0 0 0 5 5h24.4l4.707 4.707a1 1 0 1 0 1.415-1.414l-3.294-3.293h25.13a5.006 5.006 0 0 0 5-5v-16.169h1.885a2.61 2.61 0 0 0 2.607-2.607v-3.08a23.186 23.186 0 0 0 6.751-2.8l2.183 2.182a2.669 2.669 0 0 0 3.686 0l4.08-4.08a2.606 2.606 0 0 0 0-3.687l-2.181-2.182a23.2 23.2 0 0 0 2.8-6.752h3.08a2.61 2.61 0 0 0 2.608-2.607v-5.77a2.611 2.611 0 0 0 -2.607-2.611zm-112.308-15.637v-7.742a5.006 5.006 0 0 1 5-5h42.121a5.006 5.006 0 0 1 5 5v7.742a5.006 5.006 0 0 1 -5 5h-6.312a1 1 0 0 0 0 2h5.217v3.258h-39.93v-3.258h20.838a1 1 0 0 0 0-2h-21.934a5.006 5.006 0 0 1 -5-5zm0 25v-7.742a5.006 5.006 0 0 1 5-5h42.121a5.006 5.006 0 0 1 5 5v7.742a5.006 5.006 0 0 1 -5 5h-42.121a5.006 5.006 0 0 1 -5-5zm6.1 10.258v-3.258h39.93v3.258zm-6.1 14.742v-7.742a5.006 5.006 0 0 1 5-5h42.121a5.006 5.006 0 0 1 5 5v7.742a5.006 5.006 0 0 1 -5 5h-42.121a5.006 5.006 0 0 1 -5-5zm85.416 15.8a3 3 0 0 1 -3 3h-25.124l3.294-3.293a1 1 0 0 0 -1.415-1.414l-4.707 4.707h-24.406a3 3 0 0 1 -3-3v-8.8h20.06a7.008 7.008 0 0 0 7-7v-7.742a7.005 7.005 0 0 0 -6.095-6.934v-3.393a7.005 7.005 0 0 0 6.095-6.935v-7.738a7.005 7.005 0 0 0 -6.095-6.934v-3.393a7.005 7.005 0 0 0 6.095-6.935v-7.738a7.008 7.008 0 0 0 -7-7h-20.06v-8.8a3 3 0 0 1 3-3h27.4l-3.287 3.293a1 1 0 1 0 1.414 1.414l4.708-4.707h22.123a3 3 0 0 1 3 3v16.173h-1.886a2.61 2.61 0 0 0 -2.606 2.6v3.08a23.207 23.207 0 0 0 -6.752 2.8l-2.182-2.182a2.669 2.669 0 0 0 -3.686 0l-4.08 4.079a2.606 2.606 0 0 0 0 3.687l2.181 2.182a23.23 23.23 0 0 0 -2.8 6.752h-3.083a2.611 2.611 0 0 0 -2.607 2.607v5.77a2.61 2.61 0 0 0 2.607 2.607h3.081a23.23 23.23 0 0 0 2.8 6.752l-2.181 2.182a2.6 2.6 0 0 0 0 3.686l4.08 4.081a2.669 2.669 0 0 0 3.686 0l2.182-2.182a23.18 23.18 0 0 0 6.752 2.8v3.08a2.609 2.609 0 0 0 2.608 2.619h1.886zm27.5-41.79a.608.608 0 0 1 -.608.607h-3.882a1 1 0 0 0 -.981.8 21.217 21.217 0 0 1 -3.128 7.538 1 1 0 0 0 .127 1.259l2.75 2.75a.606.606 0 0 1 0 .858l-4.08 4.08a.621.621 0 0 1 -.858 0l-2.75-2.75a1 1 0 0 0 -1.259-.127 21.258 21.258 0 0 1 -7.538 3.128 1 1 0 0 0 -.8.98v3.883a.608.608 0 0 1 -.607.607h-5.772a.608.608 0 0 1 -.606-.607v-3.877a1 1 0 0 0 -.8-.98 21.248 21.248 0 0 1 -7.54-3.128 1 1 0 0 0 -1.259.127l-2.749 2.749a.621.621 0 0 1 -.858 0l-4.08-4.076a.606.606 0 0 1 0-.858l2.749-2.75a1 1 0 0 0 .127-1.259 21.223 21.223 0 0 1 -3.127-7.538 1 1 0 0 0 -.981-.8h-3.884a.607.607 0 0 1 -.607-.607v-5.77a.608.608 0 0 1 .607-.607h3.884a1 1 0 0 0 .981-.8 21.243 21.243 0 0 1 3.127-7.539 1 1 0 0 0 -.127-1.258l-2.749-2.75a.606.606 0 0 1 0-.858l4.08-4.08a.621.621 0 0 1 .858 0l2.749 2.749a1 1 0 0 0 1.259.127 21.248 21.248 0 0 1 7.539-3.128 1 1 0 0 0 .8-.98v-3.894a.607.607 0 0 1 .606-.607h5.771a.607.607 0 0 1 .607.607v3.883a1 1 0 0 0 .8.98 21.258 21.258 0 0 1 7.538 3.128 1 1 0 0 0 1.259-.127l2.75-2.749a.621.621 0 0 1 .858 0l4.08 4.08a.606.606 0 0 1 0 .858l-2.75 2.75a1 1 0 0 0 -.127 1.259 21.225 21.225 0 0 1 3.128 7.538 1 1 0 0 0 .981.8h3.882a.609.609 0 0 1 .608.607z" fill="#3a2c60"/><path d="m36.124 47.869h6.664a1 1 0 0 0 0-2h-6.664a1 1 0 1 0 0 2z" fill="#3a2c60"/></svg>